<svg width="23" height="22" viewBox="0 0 23 22" fill="none" xmlns="http://www.w3.org/2000/svg">
<path fill-rule="evenodd" clip-rule="evenodd" d="M10.4638 21.1771L11.1604 21.5406L11.8558 21.1749C17.3544 18.2834 20.6713 14.2504 21.813 10.4683C22.3835 8.57859 22.4252 6.68779 21.8234 5.05502C21.209 3.38833 19.9559 2.09169 18.1737 1.43879C15.2862 0.380916 12.8067 1.36525 11.0782 2.92179C9.36369 1.40758 6.93542 0.430357 4.14841 1.43634C2.35104 2.08512 1.0786 3.37579 0.449761 5.04499C-0.166431 6.68062 -0.130347 8.57551 0.441047 10.4683C1.58429 14.2552 4.92612 18.2877 10.4638 21.1771Z" fill="white"/>
<path fill-rule="evenodd" clip-rule="evenodd" d="M10.4621 5.13766C9.62982 6.35174 9.1287 7.73576 9.0964 8.88658C9.07882 9.51302 9.19945 10.1249 9.54439 10.5929C9.90586 11.0834 10.4632 11.3473 11.1577 11.3473C11.855 11.3473 12.4133 11.0833 12.7686 10.5861C13.1065 10.1133 13.2116 9.49763 13.1784 8.87182C13.1175 7.72051 12.581 6.33769 11.7218 5.12807C13.0805 3.49635 15.1173 2.44906 17.4857 3.31675C18.7114 3.76578 19.5334 4.62524 19.9468 5.74675C20.3644 6.87962 20.3749 8.31186 19.8984 9.89026C18.96 12.9985 16.1516 16.5914 11.1568 19.2814C6.12088 16.5906 3.29364 12.9972 2.3557 9.89026C1.87951 8.31289 1.89492 6.88201 2.32135 5.7501C2.74354 4.62941 3.57962 3.76797 4.82744 3.31756C7.07774 2.5053 9.08461 3.52831 10.4621 5.13766ZM11.0861 4.33342C9.54124 2.61731 7.19251 1.40073 4.48793 2.37696C2.96532 2.92655 1.91107 4.00261 1.38555 5.39755C0.864261 6.78127 0.87456 8.44414 1.39837 10.1793C2.44611 13.6499 5.56684 17.4941 10.9264 20.2905L11.1586 20.4117L11.3904 20.2898C16.7097 17.4926 19.8085 13.6483 20.8557 10.1793C21.3792 8.44517 21.3948 6.78366 20.8851 5.4009C20.3712 4.00678 19.3336 2.92874 17.8297 2.37778C15.0127 1.34573 12.6253 2.57844 11.0861 4.33342ZM11.099 5.99041C10.4692 7.00102 10.1195 8.07592 10.096 8.91464C10.082 9.41448 10.1845 9.77591 10.3494 9.99965C10.4978 10.201 10.737 10.3473 11.1577 10.3473C11.583 10.3473 11.8152 10.2003 11.955 10.0047C12.1121 9.78483 12.2064 9.42595 12.1798 8.92469C12.1353 8.08279 11.7561 7.00322 11.099 5.99041Z" fill="black"/>
</svg>
