<svg width="23" height="22" viewBox="0 0 23 22" fill="none" xmlns="http://www.w3.org/2000/svg">
<path d="M10.9273 20.855L11.1595 20.9761L11.3913 20.8542L11.6231 20.7323C17.032 17.888 20.2399 13.9493 21.3344 10.3237C21.8814 8.51186 21.91 6.7357 21.3542 5.22793C20.7901 3.69753 19.6447 2.51019 18.0017 1.90826C15.1491 0.863177 12.7205 1.96036 11.0817 3.60803C9.44749 2.00084 7.06463 0.91528 4.31817 1.90663C2.65818 2.50581 1.49483 3.68918 0.917653 5.22125C0.348913 6.73092 0.372104 8.5098 0.919706 10.3237C2.01519 13.9525 5.24648 17.8908 10.6951 20.7338L10.9273 20.855Z" fill="white" stroke="white"/>
<path d="M11.1577 19.8473C0.616806 14.3473 -0.883175 4.84726 4.65768 2.84726C10.8158 0.62445 15.1168 10.8473 11.1577 10.8473C7.19853 10.8473 11.272 0.507794 17.6577 2.84726C23.1168 4.84725 21.6168 14.3473 11.1577 19.8473Z" stroke="black"/>
</svg>
